<?xml version="1.0" standalone="no"?><svg xmlns="http://www.w3.org/2000/svg" viewBox="0 0 1440 320"><path fill="#0099ff" fill-opacity="1" d="M0,0L18.5,32C36.9,64,74,128,111,165.3C147.7,203,185,213,222,197.3C258.5,181,295,139,332,106.7C369.2,75,406,53,443,74.7C480,96,517,160,554,181.3C590.8,203,628,181,665,144C701.5,107,738,53,775,53.3C812.3,53,849,107,886,106.7C923.1,107,960,53,997,69.3C1033.8,85,1071,171,1108,202.7C1144.6,235,1182,213,1218,186.7C1255.4,160,1292,128,1329,112C1366.2,96,1403,96,1422,96L1440,96L1440,0L1421.5,0C1403.1,0,1366,0,1329,0C1292.3,0,1255,0,1218,0C1181.5,0,1145,0,1108,0C1070.8,0,1034,0,997,0C960,0,923,0,886,0C849.2,0,812,0,775,0C738.5,0,702,0,665,0C627.7,0,591,0,554,0C516.9,0,480,0,443,0C406.2,0,369,0,332,0C295.4,0,258,0,222,0C184.6,0,148,0,111,0C73.8,0,37,0,18,0L0,0Z"></path></svg>