<?xml version="1.0" standalone="no"?><svg xmlns="http://www.w3.org/2000/svg" viewBox="0 0 1440 320"><path fill="#0099ff" fill-opacity="1" d="M0,192L34.3,165.3C68.6,139,137,85,206,90.7C274.3,96,343,160,411,186.7C480,213,549,203,617,197.3C685.7,192,754,192,823,176C891.4,160,960,128,1029,149.3C1097.1,171,1166,245,1234,261.3C1302.9,277,1371,235,1406,213.3L1440,192L1440,320L1405.7,320C1371.4,320,1303,320,1234,320C1165.7,320,1097,320,1029,320C960,320,891,320,823,320C754.3,320,686,320,617,320C548.6,320,480,320,411,320C342.9,320,274,320,206,320C137.1,320,69,320,34,320L0,320Z"></path></svg>